<?xml version="1.0" encoding="UTF-8" standalone="no"?>
<!-- Created with Inkscape (http://www.inkscape.org/) -->

<svg
   xmlns:dc="http://purl.org/dc/elements/1.1/"
   xmlns:cc="http://creativecommons.org/ns#"
   xmlns:rdf="http://www.w3.org/1999/02/22-rdf-syntax-ns#"
   xmlns:svg="http://www.w3.org/2000/svg"
   xmlns="http://www.w3.org/2000/svg"
   xmlns:sodipodi="http://sodipodi.sourceforge.net/DTD/sodipodi-0.dtd"
   xmlns:inkscape="http://www.inkscape.org/namespaces/inkscape"
   width="64"
   height="64"
   id="svg2"
   version="1.1"
   inkscape:version="0.91+devel+osxmenu r12897"
   inkscape:export-filename="/home/dchest/Desktop/sellmebiz.png"
   inkscape:export-xdpi="22.5"
   inkscape:export-ydpi="22.5"
   sodipodi:docname="dchest.svg">
  <defs
     id="defs4" />
  <sodipodi:namedview
     id="base"
     pagecolor="#ffffff"
     bordercolor="#666666"
     borderopacity="1.0"
     inkscape:pageopacity="0.0"
     inkscape:pageshadow="2"
     inkscape:zoom="0.9899495"
     inkscape:cx="47.245861"
     inkscape:cy="-44.793342"
     inkscape:document-units="px"
     inkscape:current-layer="text2985"
     showgrid="false"
     inkscape:window-width="960"
     inkscape:window-height="600"
     inkscape:window-x="0"
     inkscape:window-y="22"
     inkscape:window-maximized="0" />
  <metadata
     id="metadata7">
    <rdf:RDF>
      <cc:Work
         rdf:about="">
        <dc:format>image/svg+xml</dc:format>
        <dc:type
           rdf:resource="http://purl.org/dc/dcmitype/StillImage" />
        <dc:title />
      </cc:Work>
    </rdf:RDF>
  </metadata>
  <g
     inkscape:label="Layer 1"
     inkscape:groupmode="layer"
     id="layer1"
     transform="translate(0,-988.36218)">
    <rect
       style="fill:#f4f4f4;fill-opacity:1;stroke:#d9d9d9;stroke-width:3.76470590000000005;stroke-linejoin:round;stroke-miterlimit:4;stroke-opacity:1;stroke-dasharray:none"
       id="rect2989"
       width="60.235294"
       height="60.235294"
       x="1.8823529"
       y="990.24457"
       ry="9.4117641" />
    <g
       style="font-size:40px;font-style:normal;font-weight:normal;line-height:125%;letter-spacing:0px;word-spacing:0px;fill:#000000;fill-opacity:1;stroke:none;font-family:Sans;stroke-width:1;stroke-miterlimit:4;stroke-dasharray:none"
       id="text2985">
      <g
         style="font-style:normal;font-weight:normal;font-size:40px;line-height:125%;font-family:sans-serif;letter-spacing:0px;word-spacing:0px;fill:#000000;fill-opacity:1;stroke:none;stroke-width:1px;stroke-linecap:butt;stroke-linejoin:miter;stroke-opacity:1"
         id="text4523">
        <path
           d="m 25.449172,1033.4452 q -0.266666,1.1734 -0.906666,2.24 -0.64,1.0667 -1.6,1.92 -0.906667,0.8 -2.133333,1.28 -1.173334,0.48 -2.56,0.48 -5.28,0 -7.893334,-3.36 -2.6133328,-3.36 -2.6133328,-10.4533 0,-6.8267 3.3066668,-10.4 3.36,-3.5733 9.013333,-3.5733 1.973333,0 3.093333,0.2133 1.12,0.16 2.453333,0.64 l 0,-10.08 -4.053333,-0.4267 0,-1.3866 q 1.546667,-0.64005 3.573333,-1.12005 2.08,-0.48 3.946667,-0.8 l 1.333333,0 0,37.06665 3.52,0.4267 0,1.12 q -1.546666,0.7467 -3.2,1.28 -1.653333,0.5333 -3.253333,0.7467 l -1.333333,0 -0.48,-5.8134 -0.213334,0 z m -6.133333,2.6134 q 2.613333,0 4.16,-1.6534 1.546667,-1.6533 2.133333,-4.48 l 0,-15.04 q -0.906666,-0.5333 -2.133333,-0.7466 -1.226667,-0.2134 -3.146666,-0.2134 -3.626667,0 -5.546667,3.2 -1.92,3.1467 -1.92,8.4267 0,2.1867 0.373333,4.1067 0.373334,1.8666 1.173334,3.3066 0.8,1.44 1.973333,2.2934 1.226667,0.8 2.933333,0.8 z"
           style="font-style:normal;font-variant:normal;font-weight:normal;font-stretch:normal;font-size:53.33333206px;font-family:'PT Serif';-inkscape-font-specification:'PT Serif';letter-spacing:-2.49999976px"
           id="path4528" />
        <path
           d="m 55.412504,1034.9919 q -0.96,1.8667 -3.146666,3.1467 -2.133333,1.2266 -5.013333,1.2266 -3.146667,0 -5.493334,-0.96 -2.293333,-1.0133 -3.84,-2.8266 -1.546666,-1.8667 -2.346666,-4.4267 -0.746667,-2.6133 -0.746667,-5.76 0,-6.7733 3.306667,-10.3467 3.306666,-3.6266 9.013333,-3.6266 2.613333,0 4.64,0.48 2.08,0.4266 3.52,1.1733 -0.16,1.76 -0.586667,3.9467 -0.426667,2.1866 -1.066667,3.6266 l -1.44,0 -2.239999,-6.3466 q -0.373334,-0.2667 -0.853334,-0.3734 -0.48,-0.16 -1.6,-0.16 -3.626666,0 -5.6,2.6667 -1.973333,2.6133 -1.973333,8.9067 0,2.0266 0.533333,3.9466 0.586667,1.92 1.706667,3.4667 1.173333,1.4933 2.88,2.4 1.76,0.9067 4.053333,0.9067 1.866667,0 3.253333,-0.5334 1.386667,-0.5333 2.346667,-1.28 l 0.693333,0.7467 z"
           style="font-style:normal;font-variant:normal;font-weight:normal;font-stretch:normal;font-size:53.33333206px;font-family:'PT Serif';-inkscape-font-specification:'PT Serif';letter-spacing:-2.49999976px"
           id="path4530" />
      </g>
    </g>
  </g>
</svg>
