<?xml version="1.0" encoding="utf-8"?>
<!-- Generator: Adobe Illustrator 25.2.1, SVG Export Plug-In . SVG Version: 6.00 Build 0)  -->
<svg version="1.1" id="Layer_1" xmlns="http://www.w3.org/2000/svg" xmlns:xlink="http://www.w3.org/1999/xlink" x="0px" y="0px"
	 viewBox="0 0 709.2 59.6" style="enable-background:new 0 0 709.2 59.6;" xml:space="preserve">
<style type="text/css">
	.st0{fill:#C2A02E;}
	.st1{fill:#575454;}
</style>
<g>
	<path class="st0" d="M413.9,55.8c-0.9,0.2-1.7,0.2-2.4,0.2c-1.9,0-3.5-0.6-5-1.8c-1.4-1.2-3-3.1-4.7-5.6c2.7-4.2,4-9.1,4-14.9
		c0-1.2-0.1-2.5-0.2-3.9c-0.1-0.5,0.1-0.8,0.7-1l4.9-1.3l-0.1-1.8c-1,0.1-2.2,0.1-3.3,0.1c-1.2,0-2.4,0-3.8,0c-1.5,0-3.1,0-4.5,0
		c-1.5,0-3-0.1-4.5-0.1l0.1,1.9l4.9,1c0.5,0.1,0.9,0.3,1.1,0.5c0.2,0.2,0.4,0.6,0.5,1.1c0.2,1.1,0.2,2.4,0.2,4.1
		c0,4.1-0.9,7.8-2.6,11.1L382.4,26c8-4,11.7-8.6,11.7-14.4c0-3.6-1-6.6-3.5-8.6c-2.5-2-5.7-3-9.4-3c-4.2,0-7.8,1.2-10.7,3.6
		c-2.9,2.4-4.3,5.6-4.3,9.6c0,2.2,0.4,4.3,1.2,6.3c0.8,2.1,2.6,4.9,5.5,8.4c-7.6,4.2-11.4,9.6-11.4,16c0,4.8,1.8,8.5,5.5,11.3
		c3.7,2.8,8.2,4.2,13.6,4.2c5.8,0,11-1.8,15.7-5.4c2.9,3.7,6.4,5.6,10.6,5.6c2.5,0,4.9-0.6,7.2-1.9L413.9,55.8z M376.9,4.3
		c2.3-1.3,5.4-1.1,7.4,0.6c2.2,1.8,2.9,4.3,2.8,6.9c-0.1,5.2-2.8,8.9-6.8,12c-3.4-3.6-6.2-7.3-6.7-12.2
		C373.3,8.6,374.6,5.6,376.9,4.3 M382.6,55c-3.9,0-7-1.1-9.1-3.4c-2.2-2.3-3.3-5.3-3.3-9.1c0-4.9,1.9-9,5.6-12.2l17.1,20.8
		C389.7,53.7,386.3,55,382.6,55 M369.9,12.4c0,0,1,4.6,5.9,10.3c3.1,3.5,22.3,26.8,22.3,26.8s0.6,3,1.1,3.7
		c0.5,0.7-26-30.3-27.3-32.4C370.4,18.6,369.2,15.5,369.9,12.4"/>
	<path class="st1" d="M22.4,34H8.6v13.6H23c5.9,0,9.6-2.3,9.6-6.8v-0.1C32.6,36.5,29.2,34,22.4,34 M29.8,19.7c0-3.9-3.1-6.3-8.7-6.3
		H8.6v13.2h11.9c5.6,0,9.3-2.2,9.3-6.7V19.7z M0,5.7h22.2c5.7,0,10.1,1.6,13,4.4c2.2,2.2,3.3,4.9,3.3,8.2v0.1c0,5.9-3.4,9.1-7.1,11
		c5.8,2,9.8,5.3,9.8,12v0.1c0,8.8-7.3,13.6-18.3,13.6H0V5.7z"/>
</g>
<path class="st1" d="M88.9,35.6l-8.6-19.8l-8.5,19.8H88.9z M76.5,5.4h8.1l21.8,49.9h-9.2l-5-12H68.7l-5.1,12h-8.9L76.5,5.4z"/>
<g>
	<path class="st1" d="M146.9,30.3c6.2,0,10.2-3.3,10.2-8.3v-0.1c0-5.3-3.8-8.2-10.3-8.2h-12.7v16.6H146.9z M125.4,5.7h22.1
		c6.2,0,11.1,1.8,14.3,5c2.6,2.7,4.1,6.4,4.1,10.7v0.1c0,8.1-4.9,13-11.8,15l13.4,18.8h-10.3L145,38h-10.9v17.3h-8.7V5.7z"/>
</g>
<polygon class="st1" points="185.8,5.7 193.9,5.7 220.4,40 220.4,5.7 229,5.7 229,55.3 221.7,55.3 194.4,20 194.4,55.3 185.8,55.3 
	"/>
<polygon class="st1" points="252.4,5.7 289.1,5.7 289.1,13.5 261.1,13.5 261.1,26.4 285.9,26.4 285.9,34.2 261.1,34.2 261.1,47.5 
	289.5,47.5 289.5,55.3 252.4,55.3 "/>
<g>
	<path class="st1" d="M305.7,48.1l5.2-6.2c4.7,4.1,9.6,6.4,15.6,6.4c5.4,0,8.8-2.5,8.8-6.2v-0.1c0-3.5-2-5.5-11.2-7.6
		c-10.5-2.5-16.5-5.7-16.5-14.8v-0.1c0-8.5,7.1-14.4,16.9-14.4c7.2,0,13,2.2,18,6.2l-4.7,6.6c-4.5-3.3-8.9-5.1-13.4-5.1
		c-5.1,0-8.1,2.6-8.1,5.9v0.1c0,3.8,2.3,5.5,11.8,7.8c10.5,2.5,15.9,6.3,15.9,14.5v0.1c0,9.3-7.3,14.8-17.7,14.8
		C318.8,56,311.6,53.4,305.7,48.1"/>
</g>
<polygon class="st1" points="431.4,6.4 439.5,6.4 466,40.7 466,6.4 474.6,6.4 474.6,55.9 467.3,55.9 440,20.7 440,55.9 431.4,55.9 
	"/>
<g>
	<path class="st1" d="M534.2,31.3v-0.1c0-9.6-7-17.6-16.8-17.6s-16.7,7.9-16.7,17.5v0.1c0,9.6,7,17.6,16.8,17.6
		C527.3,48.7,534.2,40.9,534.2,31.3 M491.5,31.3v-0.1c0-13.9,10.8-25.6,26-25.6c15.2,0,25.8,11.5,25.8,25.5v0.1
		c0,13.9-10.8,25.6-26,25.6S491.5,45.3,491.5,31.3"/>
	<path class="st1" d="M584,34.6h-13.8v13.6h14.4c5.9,0,9.6-2.3,9.6-6.8v-0.1C594.2,37.1,590.9,34.6,584,34.6 M591.4,20.4
		c0-3.9-3.1-6.3-8.7-6.3h-12.5v13.2h11.9c5.6,0,9.3-2.2,9.3-6.7V20.4z M561.6,6.4h22.2c5.7,0,10.1,1.6,13,4.4
		c2.2,2.2,3.3,4.9,3.3,8.2v0.1c0,5.9-3.4,9.1-7.1,11c5.8,2,9.8,5.3,9.8,12v0.1c0,8.8-7.3,13.6-18.3,13.6h-22.9V6.4z"/>
</g>
<polygon class="st1" points="619.1,6.4 627.8,6.4 627.8,48 653.9,48 653.9,55.9 619.1,55.9 "/>
<polygon class="st1" points="672.1,6.4 672.1,55.9 709.2,55.9 709.2,48.2 680.9,48.2 680.9,34.8 705.7,34.8 705.7,27.1 680.9,27.1 
	680.9,14.2 708.9,14.2 708.9,6.4 "/>
</svg>
