<svg id="Layer_1" data-name="Layer 1" xmlns="http://www.w3.org/2000/svg" width="418.36" height="80" viewBox="0 0 418.36 80">
  <defs>
    <style>
      .cls-1 {
        fill: #bf2026;
      }
    </style>
  </defs>
  <title>Rakuten-kobo-landscape</title>
  <g>
    <polygon class="cls-1" points="269.85 1.43 279.09 1.43 279.09 34.35 291.89 19.23 302.96 19.23 288.31 36.34 304.28 58.81 293.22 58.81 279.26 38.85 279.09 38.85 279.09 58.81 269.85 58.81 269.85 1.43 269.85 1.43"/>
    <path class="cls-1" d="M303.45,39c0-13,6.08-20.72,17.48-20.72S338.38,26.05,338.38,39s-6.07,20.7-17.45,20.7S303.45,52,303.45,39m17.48,14.2c6.63,0,7.63-6.8,7.63-14.2s-1-14.21-7.63-14.21-7.67,6.8-7.67,14.21,1,14.2,7.67,14.2"/>
    <path class="cls-1" d="M352.65,24h.16A11.54,11.54,0,0,1,363,18.3c9.49,0,13.64,8.07,13.64,20.72,0,11-3.83,20.7-16.72,20.7-10.4,0-16.54-5.91-16.54-17.72V1.43h9.23V24ZM360,53.22c5.92,0,6.91-7.72,6.91-14.2,0-7.16-.74-14.81-6.91-14.81-5.57,0-7.31,8.16-7.31,14.81,0,9.89,1.49,14.2,7.31,14.2"/>
    <path class="cls-1" d="M381.34,39c0-13,6.07-20.72,17.46-20.72S416.26,26.05,416.26,39s-6.07,20.7-17.46,20.7S381.34,52,381.34,39m17.46,14.2c6.65,0,7.65-6.8,7.65-14.2s-1-14.21-7.65-14.21-7.65,6.8-7.65,14.21,1,14.2,7.65,14.2"/>
    <polygon class="cls-1" points="204.74 66.61 51.19 66.61 63.42 78.85 204.74 66.61 204.74 66.61"/>
    <path class="cls-1" d="M56.5,49.8c-5.3,0-9.19-5.23-9.19-11.82S51.2,26.16,56.5,26.16s9,5.22,9,11.82-3.74,11.82-9,11.82Zm8.91-32.66V19a15.48,15.48,0,0,0-8.91-2.87c-10.76,0-18.93,9.81-18.93,21.86S45.74,59.83,56.5,59.83A15.48,15.48,0,0,0,65.41,57v1.85h9.46V17.14Z"/>
    <path class="cls-1" d="M141.16,17.14V41.62c0,4.59-3.15,8.47-7.74,8.47s-7.75-3.88-7.75-8.47V17.14h-9.46V41.62c0,10,6.87,18.21,16.92,18.21a14.48,14.48,0,0,0,8-2.57v1.55h9.46V17.14Z"/>
    <path class="cls-1" d="M229.28,58.81V34.33c0-4.59,3.15-8.47,7.75-8.47s7.75,3.88,7.75,8.47V58.81h9.45V34.33c0-10-6.87-18.21-16.91-18.21a14.54,14.54,0,0,0-8,2.57V17.14h-9.46V58.81Z"/>
    <path class="cls-1" d="M10.32,16.64h6.45a8.07,8.07,0,1,1,0,16.13H10.32V16.64Zm0,42.17V42.67h7L29.42,58.81H41.8L27.17,39.33A17.94,17.94,0,0,0,16.77,6.76H.43V58.81Z"/>
    <path class="cls-1" d="M176.11,49a5.67,5.67,0,0,1-3.17,1c-1.54,0-4.45-1.18-4.45-5.11V27h8.08V17.14h-8.08V6.76H159V17.14h-5V27h5V45c0,9.3,7,14.86,14.06,14.86a19.38,19.38,0,0,0,9.25-2.63L176.11,49Z"/>
    <polygon class="cls-1" points="98.38 36.67 114.6 17.14 101.34 17.14 90 31.66 90 3.32 80.26 3.32 80.26 58.81 90 58.81 90 41.69 103.94 58.81 117.19 58.81 98.38 36.67 98.38 36.67"/>
    <path class="cls-1" d="M206.21,32.6h-17c2-9.76,15.19-10.32,17,0ZM198,16.08c-10.94,0-18.8,9.62-18.8,21.9,0,12.9,9.86,21.89,19.74,21.89,5,0,11.38-1.71,16.75-9.33l-8.35-4.82c-6.46,9.52-17.23,4.69-18.47-4.83h27.24c2.33-15-7.35-24.81-18.11-24.81Z"/>
  </g>
</svg>
